<svg id="ICONS" xmlns="http://www.w3.org/2000/svg" viewBox="0 0 32.8 24.5"><defs><style>.cls-1{fill:#bbb;}</style></defs><path class="cls-1" d="M1041,39.26a12.88,12.88,0,0,0-8.86-3.56,11,11,0,0,0-8.22,3l-0.58.58a13.76,13.76,0,0,0-1.81-.07,10.32,10.32,0,0,0-7.25,3c-3.93,3.93-3.5,11.08.06,14.88,1.85,2,5.31,2.82,8,2.82h9.52l0.24,0a13.15,13.15,0,0,0,8.74-3.56A12.61,12.61,0,0,0,1041,39.26Zm-18.44,18.57a8.93,8.93,0,0,1-6-2.42,7.51,7.51,0,0,1-2.23-5.54,8.11,8.11,0,0,1,2.14-5.76,7.75,7.75,0,0,1,5.58-2.46,7.47,7.47,0,0,1,1.22.07,8.64,8.64,0,0,1,1.25.29,7.18,7.18,0,0,1,2,1,10,10,0,0,1,.94.75l3,3a1.67,1.67,0,0,1,.1,2.41,1.7,1.7,0,0,1-2.37-.18l-3.06-3a4.88,4.88,0,0,0-2-1,4.49,4.49,0,0,0-4.16,1.22,5.23,5.23,0,0,0-.12,7,4.78,4.78,0,0,0,3.26,1.44l0.62,0,1.17,1.1c0.31,0.3,1.17,1.06,1.62,1.42l0.65,0.65h-3.56Zm16.23-3.25a8.39,8.39,0,0,1-3.26,2.07,12.19,12.19,0,0,1-1.34.41,20.23,20.23,0,0,1-2.07.22,11.61,11.61,0,0,1-6.66-2.75l-4-4a1.9,1.9,0,0,1-.63-1.26,1.55,1.55,0,0,1,.51-1.18,1.6,1.6,0,0,1,2.23,0s4.31,4.42,4.72,4.68c1.37,0.84,4.26,1.64,6.21.71a7.35,7.35,0,0,0,2-1.34,6.22,6.22,0,0,0,1.79-4.36,6.17,6.17,0,0,0-6.17-6.22,5.46,5.46,0,0,0-2.66.63c-0.19.1-.6,0.28-0.6,0.28l-2.46-2.13a5,5,0,0,1,.42-0.37,8.63,8.63,0,0,1,5.37-1.62,9.38,9.38,0,0,1,9.35,9.36A9.46,9.46,0,0,1,1038.79,54.58Z" transform="translate(-1011.5 -35.7)"/></svg>
